ffmpeg version 8.1-essentials_build-www.gyan.dev Copyright (c) 2000-2026 the FFmpeg developers
  built with gcc 15.2.0 (Rev11, Built by MSYS2 project)
  configuration: --enable-gpl --enable-version3 --enable-static --disable-w32threads --disable-autodetect --enable-cairo --enable-fontconfig --enable-iconv --enable-gnutls --enable-libxml2 --enable-gmp --enable-bzlib --enable-lzma --enable-zlib --enable-libsrt --enable-libssh --enable-libzmq --enable-avisynth --enable-sdl2 --enable-libwebp --enable-libx264 --enable-libx265 --enable-libxvid --enable-libaom --enable-libopenjpeg --enable-libvpx --enable-mediafoundation --enable-libass --enable-libfreetype --enable-libfribidi --enable-libharfbuzz --enable-libvidstab --enable-libvmaf --enable-libzimg --enable-amf --enable-cuda-llvm --enable-cuvid --enable-dxva2 --enable-d3d11va --enable-d3d12va --enable-ffnvcodec --enable-libvpl --enable-nvdec --enable-nvenc --enable-vaapi --enable-openal --enable-libgme --enable-libopenmpt --enable-libopencore-amrwb --enable-libmp3lame --enable-libtheora --enable-libvo-amrwbenc --enable-libgsm --enable-libopencore-amrnb --enable-libopus --enable-libspeex --enable-libvorbis --enable-librubberband
  libavutil      60. 26.100 / 60. 26.100
  libavcodec     62. 28.100 / 62. 28.100
  libavformat    62. 12.100 / 62. 12.100
  libavdevice    62.  3.100 / 62.  3.100
  libavfilter    11. 14.100 / 11. 14.100
  libswscale      9.  5.100 /  9.  5.100
  libswresample   6.  3.100 /  6.  3.100
Input #0, mov,mp4,m4a,3gp,3g2,mj2, from 'F:\Antigravity Projeler\2d roguelite\RIMA\STAGING\twitter_research\2055287907011768686\twitter\chongdashu\2055287907011768686_1.mp4':
  Metadata:
    major_brand     : isom
    minor_version   : 1
    compatible_brands: isomiso4
    creation_time   : 2026-05-15T14:03:27.000000Z
  Duration: 00:42:31.50, start: 0.000000, bitrate: 907 kb/s
  Stream #0:0[0x1](und): Video: h264 (High) (avc1 / 0x31637661), yuv420p(progressive), 1920x1080, 768 kb/s, SAR 1:1 DAR 16:9, 60 fps, 60 tbr, 1536k tbn (default)
    Metadata:
      handler_name    : Twitter-vork muxer
  Stream #0:1[0x2](und): Audio: aac (LC) (mp4a / 0x6134706D), 48000 Hz, stereo, fltp, 128 kb/s (default)
    Metadata:
      handler_name    : Twitter-vork muxer
Stream mapping:
  Stream #0:0 -> #0:0 (h264 (native) -> png (native))
Press [q] to stop, [?] for help
Output #0, image2, to 'STAGING\twitter_research\2055287907011768686\frames\frame_%03d.png':
  Metadata:
    major_brand     : isom
    minor_version   : 1
    compatible_brands: isomiso4
    encoder         : Lavf62.12.100
  Stream #0:0(und): Video: png, rgb24(pc, gbr/unknown/unknown, progressive), 1920x1080 [SAR 1:1 DAR 16:9], q=2-31, 200 kb/s, 0.01 fps, 0.01 tbn (default)
    Metadata:
      encoder         : Lavc62.28.100 png
      handler_name    : Twitter-vork muxer
frame=    0 fps=0.0 q=0.0 size=       0KiB time=N/A bitrate=N/A speed=N/A elapsed=0:00:01.55    
frame=    0 fps=0.0 q=0.0 size=       0KiB time=N/A bitrate=N/A speed=N/A elapsed=0:00:02.07    
frame=    0 fps=0.0 q=0.0 size=       0KiB time=N/A bitrate=N/A speed=N/A elapsed=0:00:02.58    
frame=    0 fps=0.0 q=0.0 size=       0KiB time=N/A bitrate=N/A speed=N/A elapsed=0:00:03.09    
frame=    1 fps=0.3 q=-0.0 size=N/A time=00:02:30.00 bitrate=N/A speed=41.5x elapsed=0:00:03.61    
frame=    1 fps=0.2 q=-0.0 size=N/A time=00:02:30.00 bitrate=N/A speed=36.4x elapsed=0:00:04.12    
frame=    1 fps=0.2 q=-0.0 size=N/A time=00:02:30.00 bitrate=N/A speed=32.2x elapsed=0:00:04.65    
frame=    1 fps=0.2 q=-0.0 size=N/A time=00:02:30.00 bitrate=N/A speed=28.9x elapsed=0:00:05.18    
frame=    2 fps=0.4 q=-0.0 size=N/A time=00:05:00.00 bitrate=N/A speed=52.6x elapsed=0:00:05.69    
frame=    2 fps=0.3 q=-0.0 size=N/A time=00:05:00.00 bitrate=N/A speed=48.3x elapsed=0:00:06.21    
frame=    2 fps=0.3 q=-0.0 size=N/A time=00:05:00.00 bitrate=N/A speed=44.6x elapsed=0:00:06.72    
frame=    2 fps=0.3 q=-0.0 size=N/A time=00:05:00.00 bitrate=N/A speed=41.4x elapsed=0:00:07.24    
frame=    2 fps=0.3 q=-0.0 size=N/A time=00:05:00.00 bitrate=N/A speed=38.7x elapsed=0:00:07.76    
frame=    3 fps=0.4 q=-0.0 size=N/A time=00:07:30.00 bitrate=N/A speed=54.3x elapsed=0:00:08.28    
frame=    3 fps=0.3 q=-0.0 size=N/A time=00:07:30.00 bitrate=N/A speed=51.1x elapsed=0:00:08.80    
frame=    3 fps=0.3 q=-0.0 size=N/A time=00:07:30.00 bitrate=N/A speed=48.3x elapsed=0:00:09.31    
frame=    3 fps=0.3 q=-0.0 size=N/A time=00:07:30.00 bitrate=N/A speed=45.8x elapsed=0:00:09.83    
frame=    3 fps=0.3 q=-0.0 size=N/A time=00:07:30.00 bitrate=N/A speed=43.5x elapsed=0:00:10.35    
frame=    3 fps=0.3 q=-0.0 size=N/A time=00:07:30.00 bitrate=N/A speed=41.4x elapsed=0:00:10.86    
frame=    4 fps=0.4 q=-0.0 size=N/A time=00:10:00.00 bitrate=N/A speed=52.6x elapsed=0:00:11.40    
frame=    4 fps=0.3 q=-0.0 size=N/A time=00:10:00.00 bitrate=N/A speed=50.3x elapsed=0:00:11.91    
frame=    4 fps=0.3 q=-0.0 size=N/A time=00:10:00.00 bitrate=N/A speed=48.3x elapsed=0:00:12.42    
frame=    4 fps=0.3 q=-0.0 size=N/A time=00:10:00.00 bitrate=N/A speed=46.4x elapsed=0:00:12.94    
frame=    4 fps=0.3 q=-0.0 size=N/A time=00:10:00.00 bitrate=N/A speed=44.5x elapsed=0:00:13.47    
frame=    5 fps=0.4 q=-0.0 size=N/A time=00:12:30.00 bitrate=N/A speed=53.6x elapsed=0:00:13.98    
frame=    5 fps=0.3 q=-0.0 size=N/A time=00:12:30.00 bitrate=N/A speed=51.7x elapsed=0:00:14.51    
frame=    5 fps=0.3 q=-0.0 size=N/A time=00:12:30.00 bitrate=N/A speed=49.9x elapsed=0:00:15.03    
frame=    5 fps=0.3 q=-0.0 size=N/A time=00:12:30.00 bitrate=N/A speed=48.2x elapsed=0:00:15.55    
frame=    5 fps=0.3 q=-0.0 size=N/A time=00:12:30.00 bitrate=N/A speed=46.7x elapsed=0:00:16.07    
frame=    6 fps=0.4 q=-0.0 size=N/A time=00:15:00.00 bitrate=N/A speed=54.3x elapsed=0:00:16.58    
frame=    6 fps=0.4 q=-0.0 size=N/A time=00:15:00.00 bitrate=N/A speed=52.6x elapsed=0:00:17.10    
frame=    6 fps=0.3 q=-0.0 size=N/A time=00:15:00.00 bitrate=N/A speed=51.1x elapsed=0:00:17.61    
frame=    6 fps=0.3 q=-0.0 size=N/A time=00:15:00.00 bitrate=N/A speed=49.6x elapsed=0:00:18.13    
frame=    7 fps=0.4 q=-0.0 size=N/A time=00:17:30.00 bitrate=N/A speed=56.3x elapsed=0:00:18.65    
frame=    7 fps=0.4 q=-0.0 size=N/A time=00:17:30.00 bitrate=N/A speed=54.8x elapsed=0:00:19.16    
frame=    7 fps=0.4 q=-0.0 size=N/A time=00:17:30.00 bitrate=N/A speed=53.4x elapsed=0:00:19.67    
frame=    7 fps=0.3 q=-0.0 size=N/A time=00:17:30.00 bitrate=N/A speed=  52x elapsed=0:00:20.20    
frame=    7 fps=0.3 q=-0.0 size=N/A time=00:17:30.00 bitrate=N/A speed=50.7x elapsed=0:00:20.72    
frame=    8 fps=0.4 q=-0.0 size=N/A time=00:20:00.00 bitrate=N/A speed=56.5x elapsed=0:00:21.23    
frame=    8 fps=0.4 q=-0.0 size=N/A time=00:20:00.00 bitrate=N/A speed=55.2x elapsed=0:00:21.75    
frame=    8 fps=0.4 q=-0.0 size=N/A time=00:20:00.00 bitrate=N/A speed=53.9x elapsed=0:00:22.28    
frame=    8 fps=0.4 q=-0.0 size=N/A time=00:20:00.00 bitrate=N/A speed=52.6x elapsed=0:00:22.79    
frame=    8 fps=0.3 q=-0.0 size=N/A time=00:20:00.00 bitrate=N/A speed=51.5x elapsed=0:00:23.31    
frame=    9 fps=0.4 q=-0.0 size=N/A time=00:22:30.00 bitrate=N/A speed=56.7x elapsed=0:00:23.82    
frame=    9 fps=0.4 q=-0.0 size=N/A time=00:22:30.00 bitrate=N/A speed=55.5x elapsed=0:00:24.34    
frame=    9 fps=0.4 q=-0.0 size=N/A time=00:22:30.00 bitrate=N/A speed=54.3x elapsed=0:00:24.87    
frame=    9 fps=0.4 q=-0.0 size=N/A time=00:22:30.00 bitrate=N/A speed=53.1x elapsed=0:00:25.40    
frame=    9 fps=0.3 q=-0.0 size=N/A time=00:22:30.00 bitrate=N/A speed=52.1x elapsed=0:00:25.93    
frame=   10 fps=0.4 q=-0.0 size=N/A time=00:25:00.00 bitrate=N/A speed=56.7x elapsed=0:00:26.44    
frame=   10 fps=0.4 q=-0.0 size=N/A time=00:25:00.00 bitrate=N/A speed=55.6x elapsed=0:00:26.96    
frame=   10 fps=0.4 q=-0.0 size=N/A time=00:25:00.00 bitrate=N/A speed=54.6x elapsed=0:00:27.48    
frame=   10 fps=0.4 q=-0.0 size=N/A time=00:25:00.00 bitrate=N/A speed=53.6x elapsed=0:00:27.99    
frame=   10 fps=0.4 q=-0.0 size=N/A time=00:25:00.00 bitrate=N/A speed=52.6x elapsed=0:00:28.51    
frame=   11 fps=0.4 q=-0.0 size=N/A time=00:27:30.00 bitrate=N/A speed=56.8x elapsed=0:00:29.02    
frame=   11 fps=0.4 q=-0.0 size=N/A time=00:27:30.00 bitrate=N/A speed=55.9x elapsed=0:00:29.54    
frame=   11 fps=0.4 q=-0.0 size=N/A time=00:27:30.00 bitrate=N/A speed=54.9x elapsed=0:00:30.05    
frame=   11 fps=0.4 q=-0.0 size=N/A time=00:27:30.00 bitrate=N/A speed=  54x elapsed=0:00:30.57    
frame=   11 fps=0.4 q=-0.0 size=N/A time=00:27:30.00 bitrate=N/A speed=53.1x elapsed=0:00:31.08    
frame=   12 fps=0.4 q=-0.0 size=N/A time=00:30:00.00 bitrate=N/A speed=  57x elapsed=0:00:31.60    
frame=   12 fps=0.4 q=-0.0 size=N/A time=00:30:00.00 bitrate=N/A speed=  56x elapsed=0:00:32.11    
frame=   12 fps=0.4 q=-0.0 size=N/A time=00:30:00.00 bitrate=N/A speed=55.2x elapsed=0:00:32.63    
frame=   12 fps=0.4 q=-0.0 size=N/A time=00:30:00.00 bitrate=N/A speed=54.3x elapsed=0:00:33.14    
frame=   13 fps=0.4 q=-0.0 size=N/A time=00:32:30.00 bitrate=N/A speed=57.9x elapsed=0:00:33.66    
frame=   13 fps=0.4 q=-0.0 size=N/A time=00:32:30.00 bitrate=N/A speed=  57x elapsed=0:00:34.18    
frame=   13 fps=0.4 q=-0.0 size=N/A time=00:32:30.00 bitrate=N/A speed=56.2x elapsed=0:00:34.70    
frame=   13 fps=0.4 q=-0.0 size=N/A time=00:32:30.00 bitrate=N/A speed=55.4x elapsed=0:00:35.21    
frame=   14 fps=0.4 q=-0.0 size=N/A time=00:35:00.00 bitrate=N/A speed=58.7x elapsed=0:00:35.74    
frame=   14 fps=0.4 q=-0.0 size=N/A time=00:35:00.00 bitrate=N/A speed=57.9x elapsed=0:00:36.26    
frame=   14 fps=0.4 q=-0.0 size=N/A time=00:35:00.00 bitrate=N/A speed=57.1x elapsed=0:00:36.78    
frame=   14 fps=0.4 q=-0.0 size=N/A time=00:35:00.00 bitrate=N/A speed=56.3x elapsed=0:00:37.29    
frame=   14 fps=0.4 q=-0.0 size=N/A time=00:35:00.00 bitrate=N/A speed=55.5x elapsed=0:00:37.80    
frame=   15 fps=0.4 q=-0.0 size=N/A time=00:37:30.00 bitrate=N/A speed=58.7x elapsed=0:00:38.31    
frame=   15 fps=0.4 q=-0.0 size=N/A time=00:37:30.00 bitrate=N/A speed=57.9x elapsed=0:00:38.83    
frame=   15 fps=0.4 q=-0.0 size=N/A time=00:37:30.00 bitrate=N/A speed=57.2x elapsed=0:00:39.35    
frame=   15 fps=0.4 q=-0.0 size=N/A time=00:37:30.00 bitrate=N/A speed=56.4x elapsed=0:00:39.86    
frame=   15 fps=0.4 q=-0.0 size=N/A time=00:37:30.00 bitrate=N/A speed=55.7x elapsed=0:00:40.38    
frame=   16 fps=0.4 q=-0.0 size=N/A time=00:40:00.00 bitrate=N/A speed=58.7x elapsed=0:00:40.90    
frame=   16 fps=0.4 q=-0.0 size=N/A time=00:40:00.00 bitrate=N/A speed=  58x elapsed=0:00:41.41    
[out#0/image2 @ 000002252a11df40] video:16724KiB audio:0KiB subtitle:0KiB other streams:0KiB global headers:0KiB muxing overhead: unknown
frame=   17 fps=0.4 q=-0.0 Lsize=N/A time=00:42:30.00 bitrate=N/A speed=60.9x elapsed=0:00:41.90    
